<?xml version="1.0" standalone="no"?>
<!DOCTYPE svg PUBLIC "-//W3C//DTD SVG 20010904//EN"
 "http://www.w3.org/TR/2001/REC-SVG-20010904/DTD/svg10.dtd">
<svg version="1.0" xmlns="http://www.w3.org/2000/svg"
 width="920.000000pt" height="920.000000pt" viewBox="0 0 920.000000 920.000000"
 preserveAspectRatio="xMidYMid meet">
<metadata>
Created by potrace 1.14, written by Peter Selinger 2001-2017
</metadata>
<g transform="translate(0.000000,920.000000) scale(0.100000,-0.100000)"
fill="#000000" stroke="none">
<path d="M3862 8513 c-51 -10 -88 -63 -122 -173 -47 -156 -107 -294 -170 -395
-112 -180 -181 -319 -245 -498 l-31 -88 -200 -4 c-402 -9 -633 -47 -819 -135
-71 -34 -107 -74 -163 -186 -138 -272 -212 -569 -257 -1044 -9 -91 -22 -203
-30 -250 -8 -47 -22 -166 -30 -265 -9 -99 -22 -234 -31 -300 -34 -270 -44
-391 -50 -620 -6 -210 -4 -260 15 -400 25 -195 40 -257 90 -360 64 -134 293
-453 435 -604 45 -47 158 -136 251 -197 l60 -39 -80 -2 c-208 -6 -407 -24
-464 -42 -127 -39 -209 -113 -272 -244 -47 -97 -33 -92 -274 -106 -361 -22
-486 -89 -621 -332 -34 -61 -83 -165 -110 -232 -26 -67 -67 -165 -92 -217 -24
-52 -61 -138 -82 -190 -65 -161 -136 -316 -161 -351 -33 -47 -44 -65 -80 -134
-17 -33 -35 -62 -39 -65 -5 -3 -10 -14 -12 -25 -1 -11 -9 -26 -16 -35 -7 -8
-12 -18 -12 -23 0 -4 -10 -28 -23 -55 -13 -26 -29 -67 -36 -92 -7 -25 -17 -53
-23 -64 -5 -10 -11 -26 -13 -35 -3 -9 -14 -50 -26 -91 -11 -41 -36 -145 -54
-230 -35 -165 -39 -187 -55 -291 -5 -36 -12 -74 -16 -83 -6 -15 329 -16 4589
-16 l4596 0 -5 147 c-6 205 -18 382 -34 508 -10 83 -15 129 -25 230 -3 33 -8
67 -11 75 -3 8 -8 33 -11 55 -2 22 -11 72 -20 110 -9 39 -19 90 -23 115 -21
118 -41 203 -53 218 -5 7 -7 15 -4 18 5 5 -15 86 -30 124 -4 8 -7 18 -8 23 -2
4 -4 10 -5 15 -1 4 -2 10 -1 14 0 4 -10 32 -23 62 -13 30 -22 57 -18 60 3 3
-1 6 -8 6 -7 0 -11 3 -8 6 4 3 -9 37 -28 74 -19 38 -34 74 -34 80 0 5 -5 10
-11 10 -5 0 -7 5 -4 10 3 6 1 10 -4 10 -6 0 -11 6 -11 14 0 7 -10 24 -22 37
-13 14 -23 28 -24 33 -2 11 -25 45 -49 69 -11 11 -14 17 -7 12 11 -6 11 -3 0
14 -7 12 -15 21 -19 21 -3 0 -11 16 -19 35 -8 19 -17 35 -21 35 -4 0 -10 8
-13 18 -4 10 -26 39 -50 65 -24 25 -42 48 -38 51 3 3 0 6 -7 6 -23 0 -58 45
-79 103 -31 82 -93 184 -146 239 -56 58 -179 122 -290 150 -45 11 -90 27 -101
34 -11 8 -32 14 -47 14 -34 0 -121 22 -129 32 -3 4 -17 9 -32 10 -15 1 -27 6
-27 11 0 5 -7 7 -15 3 -8 -3 -15 -1 -15 5 0 6 -4 7 -10 4 -5 -3 -10 -1 -10 4
0 6 -13 11 -29 11 -16 0 -31 4 -33 10 -1 5 -13 11 -25 13 -12 2 -26 6 -29 10
-4 4 -18 7 -30 7 -13 0 -26 5 -29 10 -3 6 -22 10 -41 10 -30 0 -35 4 -40 28
-9 42 -56 105 -94 124 -20 10 -57 18 -85 18 -47 0 -160 -15 -195 -25 -14 -4
-14 10 -3 133 17 197 41 451 53 567 5 55 14 201 20 325 20 419 52 740 95 952
23 117 34 227 48 483 36 694 -12 1141 -153 1430 -91 187 -166 254 -325 295
-158 40 -338 37 -808 -16 -120 -13 -221 -24 -224 -24 -3 0 -3 30 0 68 7 80 49
201 112 320 97 182 158 358 159 457 0 82 -17 121 -70 161 -55 43 -120 54 -374
65 -129 5 -368 23 -530 39 -162 16 -367 33 -455 39 -180 11 -658 21 -693 14z
m773 -288 c156 -13 510 -47 615 -60 19 -2 128 -7 243 -11 188 -6 207 -9 207
-25 0 -22 -54 -149 -135 -314 -89 -183 -125 -307 -125 -431 l0 -52 -37 -6
c-196 -29 -393 -40 -748 -40 -372 -1 -486 6 -810 44 -44 5 -123 12 -177 16
l-96 7 30 71 c53 126 125 269 183 360 79 124 130 229 173 358 l37 111 230 -6
c126 -4 311 -14 410 -22z m2019 -1090 c82 -17 104 -35 154 -124 88 -158 133
-374 152 -741 14 -249 -15 -841 -50 -1023 -51 -269 -81 -566 -100 -982 -6
-132 -18 -303 -26 -380 -8 -77 -24 -246 -34 -375 -26 -317 -29 -328 -95 -425
l-55 -81 -98 -13 c-53 -7 -122 -22 -152 -33 -84 -30 -112 -35 -291 -52 -195
-19 -614 -21 -799 -4 -70 6 -379 11 -705 12 -476 2 -606 5 -724 19 -79 10
-154 20 -165 22 -12 3 -86 12 -166 20 -80 9 -187 20 -238 26 -100 11 -293 56
-382 91 -66 25 -283 159 -365 226 -59 47 -88 79 -234 264 -112 142 -211 296
-241 374 -69 185 -74 735 -10 1149 5 33 19 161 30 285 11 124 27 263 35 310 8
47 19 139 25 205 31 350 78 611 141 789 51 145 117 283 138 289 9 3 48 17 88
31 101 35 242 54 503 68 280 14 292 12 314 -47 19 -48 62 -91 102 -101 70 -18
149 35 160 108 l7 40 81 -7 c45 -3 137 -13 206 -20 331 -37 403 -40 810 -39
392 1 431 2 705 32 160 17 326 33 370 37 44 3 157 15 250 26 365 41 546 48
659 24z"/>
<path d="M5515 6236 c-118 -37 -228 -124 -272 -214 -26 -53 -28 -65 -27 -177
1 -135 19 -201 77 -277 50 -65 79 -82 150 -86 74 -5 165 23 273 83 92 52 135
93 174 169 31 62 32 69 28 153 -3 69 -10 101 -32 148 -57 125 -112 177 -213
201 -70 17 -106 17 -158 0z"/>
<path d="M3445 6072 c-113 -42 -201 -110 -271 -208 -108 -151 -99 -305 23
-414 121 -108 255 -154 384 -132 154 26 302 140 352 270 70 179 -21 452 -150
452 -20 0 -56 10 -80 21 -63 31 -191 36 -258 11z"/>
<path d="M5645 5011 c-72 -34 -190 -179 -315 -389 -127 -212 -264 -383 -394
-491 -151 -126 -259 -183 -372 -196 -180 -20 -658 133 -798 256 -70 62 -126
143 -171 245 -38 87 -39 92 -40 214 -1 138 -12 172 -62 205 -40 26 -111 25
-150 -3 -47 -33 -63 -86 -63 -203 0 -129 20 -226 71 -336 136 -293 326 -443
718 -563 487 -151 714 -111 1051 181 162 141 326 346 460 579 49 85 142 212
207 282 38 41 43 53 43 94 0 104 -94 168 -185 125z"/>
</g>
</svg>
